{"title":"The Green Hornet (2011) 720p BRRip NL subs DutchReleaseTeam","uid":6956974,"size":3097394341,"categoryP":"video","categoryS":"hd___movies","magnet":"?xt=urn:btih:7f0ce7ec968ab2699a5a0b9dae39df484c6181cf&amp;dn=The+Green+Hornet+%282011%29+720p+BRRip+NL+subs+DutchReleaseTeam&amp;tr=udp%3A%2F%2Ftracker.openbittorrent.com%3A80&amp;tr=udp%3A%2F%2Fopen.demonii.com%3A1337&amp;tr=udp%3A%2F%2Ftracker.coppersurfer.tk%3A6969&amp;tr=udp%3A%2F%2Fexodus.desync.com%3A6969","seeders":1,"leechers":0,"uploader":"Koedje","files":-1,"time":1326626160,"description":" &lt;a href=&quot;http://img812.imageshack.us/img812/985/greenbs.jpg&quot; rel=&quot;nofollow&quot; target=&quot;_NEW&quot;&gt;http://img812.imageshack.us/img812/985/greenbs.jpg&lt;/a&gt;\n\n\nVerenigde Staten\nActie / Misdaad\n119 minuten\n\ngeregisseerd door Michel Gondry\nmet Seth Rogen, Jay Chou en Christoph Waltz\n\nBritt Reid (Seth Rogen) is de zoon van de bekendste en meest gerespecteerde mediamagnaat van L.A. Zijn zorgeloze leventje bestaat voornamelijk uit feestvieren, totdat zijn vader op mysterieuze wijze sterft en aan Britt zijn omvangrijke imperium nalaat. Britt sluit daarop vriendschap met ÃƒÆ’Ã‚Â©ÃƒÆ’Ã‚Â©n van zijn vaders werknemers, de toegewijde en inventieve Kato (Jay Chou). Ze besluiten om voor het eerst in hun leven iets zinvols te doen: de misdaad bestrijden. En de beste manier om dit te doen is... door zelf crimineel te worden. Zo wordt Britt 'The Green Hornet' en samen met Kato gaat hij de straat op, om de wet te beschermen door deze te overtreden... De vindingrijke Kato bouwt het ultieme retro-wapen: The Black Beauty, een snelle en onverwoestbare auto met de meest geavanceerde wapens aan boord. Met dit rijdende fort en de slimme gadgets van Kato worden ze als snel de schrik van iedere crimineel. Met behulp van Britts nieuwe secretaresse, Lenore Case (Cameron Diaz), openen ze de jacht op de man die de onderwereld van L.A. beheerst: Benjamin Chudnofsky (Christoph Waltz). Maar Chudnofsky heeft zijn eigen plan...\n\n\n\nNl subs\n\n\n\n\nScreenshot:\n\n &lt;a href=&quot;\nhttp://www.hotimg.com/image/Hp2B9qv&quot; rel=&quot;nofollow&quot; target=&quot;_NEW&quot;&gt;\nhttp://www.hotimg.com/image/Hp2B9qv&lt;/a&gt; &lt;a href=&quot;\nhttp://www.hotimg.com/image/UFKWGax&quot; rel=&quot;nofollow&quot; target=&quot;_NEW&quot;&gt;\nhttp://www.hotimg.com/image/UFKWGax&lt;/a&gt; &lt;a href=&quot;\nhttp://www.hotimg.com/image/C22CKbA&quot; rel=&quot;nofollow&quot; target=&quot;_NEW&quot;&gt;\nhttp://www.hotimg.com/image/C22CKbA&lt;/a&gt; &lt;a href=&quot;\nhttp://www.hotimg.com/image/Qfe8BbG&quot; rel=&quot;nofollow&quot; target=&quot;_NEW&quot;&gt;\nhttp://www.hotimg.com/image/Qfe8BbG&lt;/a&gt;\n\n\n\n\n\n\nINFO;\n\nFormat                                   : Matroska\nFormat version                           : Version 2\nFile size                                : 2.86 GiB\nDuration                                 : 1h 58mn\nOverall bit rate                         : 3 449 Kbps\nEncoded date                             : UTC 2012-01-13 22:10:56\nWriting application                      : mkvmerge v5.2.1 ('A Far Off Place') built on Jan  2 2012 23:21:10\nWriting library                          : libebml v1.2.3 + libmatroska v1.3.0\n\nVideo\nID                                       : 1\nFormat                                   : AVC\nFormat/Info                              : Advanced Video Codec\nFormat profile                           : &lt;a class=&quot;__cf_email__&quot; href=&quot;/cdn-cgi/l/email-protection&quot; data-cfemail=&quot;ffb7969897bfb3cbd1ce&quot;&gt;[email&amp;#160;protected]&lt;/a&gt;&lt;script cf-hash='f9e31' type=&quot;text/javascript&quot;&gt;\n/* &lt;![CDATA[ */!function(){try{var t=&quot;currentScript&quot;in document?document.currentScript:function(){for(var t=document.getElementsByTagName(&quot;script&quot;),e=t.length;e--;)if(t[e].getAttribute(&quot;cf-hash&quot;))return t[e]}();if(t&amp;&amp;t.previousSibling){var e,r,n,i,c=t.previousSibling,a=c.getAttribute(&quot;data-cfemail&quot;);if(a){for(e=&quot;&quot;,r=parseInt(a.substr(0,2),16),n=2;a.length-n;n+=2)i=parseInt(a.substr(n,2),16)^r,e+=String.fromCharCode(i);e=document.createTextNode(e),c.parentNode.replaceChild(e,c)}}}catch(u){}}();/* ]]&gt; */&lt;/script&gt;\nFormat settings, CABAC                   : Yes\nFormat settings, ReFrames                : 4 frames\nMuxing mode                              : Header stripping\nCodec ID                                 : V_MPEG4/ISO/AVC\nDuration                                 : 1h 58mn\nBit rate                                 : 3 001 Kbps\nWidth                                    : 1 280 pixels\nHeight                                   : 528 pixels\nDisplay aspect ratio                     : 2.40:1\nOriginal display aspect ratio            : 2.40:1\nFrame rate                               : 23.976 fps\nColor space                              : YUV\nChroma subsampling                       : 4:2:0\nBit depth                                : 8 bits\nScan type                                : Progressive\nBits/(Pixel*Frame)                       : 0.185\nStream size                              : 2.44 GiB (85%)\nWriting library                          : x264 core 119 r2106 07efeb4\nDefault                                  : Yes\nForced                                   : No\n\nAudio\nID                                       : 2\nFormat                                   : AC-3\nFormat/Info                              : Audio Coding 3\nMode extension                           : CM (complete main)\nMuxing mode                              : Header stripping\nCodec ID                                 : A_AC3\nDuration                                 : 1h 58mn\nBit rate mode                            : Constant\nBit rate                                 : 448 Kbps\nChannel(s)                               : 6 channels\nChannel positions                        : Front: L C R, Side: L R, LFE\nSampling rate                            : 48.0 KHz\nBit depth                                : 16 bits\nCompression mode                         : Lossy\nStream size                              : 381 MiB (13%)\nDefault                                  : Yes\nForced                                   : No\n\nText\nID                                       : 3\nFormat                                   : UTF-8\nCodec ID                                 : S_TEXT/UTF8\nCodec ID/Info                            : UTF-8 Plain Text\nLanguage                                 : Dutch\nDefault                                  : Yes\nForced                                   : No\n\n\n\n &lt;a href=&quot;\nhttp://www.imdb.com/title/tt0990407/&quot; rel=&quot;nofollow&quot; target=&quot;_NEW&quot;&gt;\nhttp://www.imdb.com/title/tt0990407/&lt;/a&gt; &lt;a href=&quot;\nhttp://www.moviemeter.nl/film/60011&quot; rel=&quot;nofollow&quot; target=&quot;_NEW&quot;&gt;\nhttp://www.moviemeter.nl/film/60011&lt;/a&gt;\n\n\n\n\nDeze film wordt u aangeboden door het DutchReleaseTeam.\nVoor de reviews van de nieuwste films, muziek, series, games etc\nga dan eens naar http://www.hetmultimediacafe.be/","torrent":{"xt":"urn:btih:7f0ce7ec968ab2699a5a0b9dae39df484c6181cf","amp;dn":"The+Green+Hornet+%282011%29+720p+BRRip+NL+subs+DutchReleaseTeam","amp;tr":["udp%3A%2F%2Ftracker.openbittorrent.com%3A80","udp%3A%2F%2Fopen.demonii.com%3A1337","udp%3A%2F%2Ftracker.coppersurfer.tk%3A6969","udp%3A%2F%2Fexodus.desync.com%3A6969"],"infoHash":"7f0ce7ec968ab2699a5a0b9dae39df484c6181cf","infoHashBuffer":{"type":"Buffer","data":[127,12,231,236,150,138,178,105,154,90,11,157,174,57,223,72,76,97,129,207]},"announce":[],"urlList":[]}}